{
  "accessors": [
    {
      "bufferView": 2,
      "componentType": 5126,
      "count": 3008,
      "max": [
        2.157890558242798,
        4.024401664733887,
        1.019547939300537
      ],
      "min": [
        -2.1498818397521973,
        -3.8615128993988037,
        -0.5056732892990112
      ],
      "type": "VEC3"
    },
    {
      "bufferView": 2,
      "byteOffset": 36096,
      "componentType": 5126,
      "count": 3008,
      "max": [
        1.0,
        0.995280921459198,
        0.9999978542327881
      ],
      "min": [
        -1.0,
        -0.986894965171814,
        -1.0
      ],
      "type": "VEC3"
    },
    {
      "bufferView": 3,
      "componentType": 5126,
      "count": 3008,
      "max": [
        1.0,
        0.9993329644203186,
        1.0,
        1.0
      ],
      "min": [
        -1.0,
        -0.9997379779815674,
        -1.0,
        -1.0
      ],
      "type": "VEC4"
    },
    {
      "bufferView": 1,
      "componentType": 5126,
      "count": 3008,
      "max": [
        0.9362000226974487,
        15.326499938964844
      ],
      "min": [
        0.000699999975040555,
        -15.340100288391113
      ],
      "type": "VEC2"
    },
    {
      "bufferView": 1,
      "byteOffset": 24064,
      "componentType": 5126,
      "count": 3008,
      "max": [
        1.0,
        1.0
      ],
      "min": [
        0.0,
        1.0
      ],
      "type": "VEC2"
    },
    {
      "bufferView": 1,
      "byteOffset": 48128,
      "componentType": 5126,
      "count": 3008,
      "max": [
        0.9362000226974487,
        15.326499938964844
      ],
      "min": [
        0.000699999975040555,
        -15.340100288391113
      ],
      "type": "VEC2"
    },
    {
      "bufferView": 0,
      "componentType": 5125,
      "count": 10368,
      "type": "SCALAR"
    },
    {
      "bufferView": 2,
      "byteOffset": 72192,
      "componentType": 5126,
      "count": 18092,
      "max": [
        2.109426975250244,
        4.067479133605957,
        0.9589699506759644
      ],
      "min": [
        -2.101419448852539,
        -3.8036272525787354,
        -0.4464414715766907
      ],
      "type": "VEC3"
    },
    {
      "bufferView": 2,
      "byteOffset": 289296,
      "componentType": 5126,
      "count": 18092,
      "max": [
        1.0,
        1.0,
        1.0
      ],
      "min": [
        -1.0,
        -1.0,
        -1.0
      ],
      "type": "VEC3"
    },
    {
      "bufferView": 3,
      "byteOffset": 48128,
      "componentType": 5126,
      "count": 18092,
      "max": [
        1.0,
        1.0,
        1.0,
        1.0
      ],
      "min": [
        -1.0,
        -1.0,
        -1.0,
        -1.0
      ],
      "type": "VEC4"
    },
    {
      "bufferView": 1,
      "byteOffset": 72192,
      "componentType": 5126,
      "count": 18092,
      "max": [
        0.9994999766349792,
        0.9994999766349792
      ],
      "min": [
        0.0003000000142492354,
        0.000299990177154541
      ],
      "type": "VEC2"
    },
    {
      "bufferView": 1,
      "byteOffset": 216928,
      "componentType": 5126,
      "count": 18092,
      "max": [
        0.9994999766349792,
        0.9994999766349792
      ],
      "min": [
        0.0003000000142492354,
        0.000299990177154541
      ],
      "type": "VEC2"
    },
    {
      "bufferView": 0,
      "byteOffset": 41472,
      "componentType": 5125,
      "count": 50166,
      "type": "SCALAR"
    },
    {
      "bufferView": 2,
      "byteOffset": 506400,
      "componentType": 5126,
      "count": 19894,
      "max": [
        2.218467950820923,
        4.844223976135254,
        1.5923832654953003
      ],
      "min": [
        -2.2144980430603027,
        -4.086324214935303,
        -0.013608694076538086
      ],
      "type": "VEC3"
    },
    {
      "bufferView": 2,
      "byteOffset": 745128,
      "componentType": 5126,
      "count": 19894,
      "max": [
        1.0,
        1.0,
        1.0
      ],
      "min": [
        -1.0,
        -1.0,
        -1.0
      ],
      "type": "VEC3"
    },
    {
      "bufferView": 3,
      "byteOffset": 337600,
      "componentType": 5126,
      "count": 19894,
      "max": [
        1.0,
        1.0,
        1.0,
        1.0
      ],
      "min": [
        -1.0,
        -1.0,
        -1.0,
        -1.0
      ],
      "type": "VEC4"
    },
    {
      "bufferView": 1,
      "byteOffset": 361664,
      "componentType": 5126,
      "count": 19894,
      "max": [
        0.9987999796867371,
        0.9986000061035156
      ],
      "min": [
        0.0005000000237487257,
        0.001100003719329834
      ],
      "type": "VEC2"
    },
    {
      "bufferView": 1,
      "byteOffset": 520816,
      "componentType": 5126,
      "count": 19894,
      "max": [
        0.9987999796867371,
        0.9986000061035156
      ],
      "min": [
        0.0005000000237487257,
        0.001100003719329834
      ],
      "type": "VEC2"
    },
    {
      "bufferView": 0,
      "byteOffset": 242136,
      "componentType": 5125,
      "count": 55056,
      "type": "SCALAR"
    },
    {
      "bufferView": 2,
      "byteOffset": 983856,
      "componentType": 5126,
      "count": 9577,
      "max": [
        1.7284588813781738,
        2.2847561836242676,
        3.3263497352600098
      ],
      "min": [
        -1.7258352041244507,
        -1.782049298286438,
        1.467276930809021
      ],
      "type": "VEC3"
    },
    {
      "bufferView": 2,
      "byteOffset": 1098780,
      "componentType": 5126,
      "count": 9577,
      "max": [
        1.0,
        1.0,
        1.0
      ],
      "min": [
        -1.0,
        -1.0,
        -0.9996390342712402
      ],
      "type": "VEC3"
    },
    {
      "bufferView": 3,
      "byteOffset": 655904,
      "componentType": 5126,
      "count": 9577,
      "max": [
        1.0,
        1.0,
        1.0,
        1.0
      ],
      "min": [
        -1.0,
        -1.0,
        -1.0,
        -1.0
      ],
      "type": "VEC4"
    },
    {
      "bufferView": 1,
      "byteOffset": 679968,
      "componentType": 5126,
      "count": 9577,
      "max": [
        0.9973999857902527,
        0.9976000189781189
      ],
      "min": [
        0.002300000051036477,
        0.0040000081062316895
      ],
      "type": "VEC2"
    },
    {
      "bufferView": 1,
      "byteOffset": 756584,
      "componentType": 5126,
      "count": 9577,
      "max": [
        0.9973999857902527,
        0.9976000189781189
      ],
      "min": [
        0.002300000051036477,
        0.0040000081062316895
      ],
      "type": "VEC2"
    },
    {
      "bufferView": 0,
      "byteOffset": 462360,
      "componentType": 5125,
      "count": 28404,
      "type": "SCALAR"
    },
    {
      "bufferView": 2,
      "byteOffset": 1213704,
      "componentType": 5126,
      "count": 1370,
      "max": [
        0.27598071098327637,
        -1.2382349967956543,
        2.332242012023926
      ],
      "min": [
        -0.35672324895858765,
        -7.213921546936035,
        1.605305790901184
      ],
      "type": "VEC3"
    },
    {
      "bufferView": 2,
      "byteOffset": 1230144,
      "componentType": 5126,
      "count": 1370,
      "max": [
        0.9979826807975769,
        0.9577946662902832,
        1.0
      ],
      "min": [
        -0.998836874961853,
        -1.0,
        -1.0
      ],
      "type": "VEC3"
    },
    {
      "bufferView": 3,
      "byteOffset": 809136,
      "componentType": 5126,
      "count": 1370,
      "max": [
        1.0,
        1.0,
        0.9997523427009583,
        1.0
      ],
      "min": [
        -1.0,
        -0.9996502995491028,
        -0.9997552633285522,
        -1.0
      ],
      "type": "VEC4"
    },
    {
      "bufferView": 1,
      "byteOffset": 833200,
      "componentType": 5126,
      "count": 1370,
      "max": [
        0.9958999752998352,
        0.9922999739646912
      ],
      "min": [
        0.006399999838322401,
        0.007600009441375732
      ],
      "type": "VEC2"
    },
    {
      "bufferView": 0,
      "byteOffset": 575976,
      "componentType": 5125,
      "count": 4170,
      "type": "SCALAR"
    }
  ],
  "asset": {
    "extras": {
      "author": "J_ (https://sketchfab.com/J_0)",
      "license": "CC-BY-4.0 (http://creativecommons.org/licenses/by/4.0/)",
      "source": "https://sketchfab.com/3d-models/tank-a16de8a3c888482e9c49ccf8cb9896e1",
      "title": "Tank"
    },
    "generator": "Sketchfab-12.67.0",
    "version": "2.0"
  },
  "bufferViews": [
    {
      "buffer": 0,
      "byteLength": 592656,
      "name": "floatBufferViews",
      "target": 34963
    },
    {
      "buffer": 0,
      "byteLength": 844160,
      "byteOffset": 592656,
      "byteStride": 8,
      "name": "floatBufferViews",
      "target": 34962
    },
    {
      "buffer": 0,
      "byteLength": 1246584,
      "byteOffset": 1436816,
      "byteStride": 12,
      "name": "floatBufferViews",
      "target": 34962
    },
    {
      "buffer": 0,
      "byteLength": 831056,
      "byteOffset": 2683400,
      "byteStride": 16,
      "name": "floatBufferViews",
      "target": 34962
    }
  ],
  "buffers": [
    {
      "byteLength": 3514456,
      "uri": "scene.bin"
    }
  ],
  "extensionsRequired": [
    "KHR_materials_pbrSpecularGlossiness"
  ],
  "extensionsUsed": [
    "KHR_materials_pbrSpecularGlossiness"
  ],
  "images": [
    {
      "uri": "textures/Chain_diffuse.jpeg"
    },
    {
      "uri": "textures/Chain_specularGlossiness.jpeg"
    },
    {
      "uri": "textures/Chain_normal.png"
    },
    {
      "uri": "textures/Gears_diffuse.jpeg"
    },
    {
      "uri": "textures/Gears_specularGlossiness.jpeg"
    },
    {
      "uri": "textures/Gears_normal.png"
    },
    {
      "uri": "textures/Main_body_diffuse.jpeg"
    },
    {
      "uri": "textures/Main_body_specularGlossiness.jpeg"
    },
    {
      "uri": "textures/Main_body_normal.png"
    },
    {
      "uri": "textures/Head_diffuse.jpeg"
    },
    {
      "uri": "textures/Head_specularGlossiness.jpeg"
    },
    {
      "uri": "textures/Head_normal.png"
    },
    {
      "uri": "textures/t_Cannon_diffuse.jpeg"
    },
    {
      "uri": "textures/t_Cannon_specularGlossiness.jpeg"
    },
    {
      "uri": "textures/t_Cannon_normal.png"
    }
  ],
  "materials": [
    {
      "doubleSided": true,
      "extensions": {
        "KHR_materials_pbrSpecularGlossiness": {
          "diffuseFactor": [
            1.0,
            1.0,
            1.0,
            1.0
          ],
          "diffuseTexture": {
            "index": 0
          },
          "glossinessFactor": 0.2882231278852983,
          "specularFactor": [
            1.0,
            1.0,
            1.0
          ],
          "specularGlossinessTexture": {
            "index": 1
          }
        }
      },
      "name": "Chain",
      "normalTexture": {
        "index": 2
      }
    },
    {
      "doubleSided": true,
      "extensions": {
        "KHR_materials_pbrSpecularGlossiness": {
          "diffuseFactor": [
            1.0,
            1.0,
            1.0,
            1.0
          ],
          "diffuseTexture": {
            "index": 3
          },
          "glossinessFactor": 0.39125343091560133,
          "specularFactor": [
            1.0,
            1.0,
            1.0
          ],
          "specularGlossinessTexture": {
            "index": 4
          }
        }
      },
      "name": "Gears",
      "normalTexture": {
        "index": 5
      }
    },
    {
      "doubleSided": true,
      "extensions": {
        "KHR_materials_pbrSpecularGlossiness": {
          "diffuseFactor": [
            1.0,
            1.0,
            1.0,
            1.0
          ],
          "diffuseTexture": {
            "index": 6
          },
          "glossinessFactor": 0.7003443400065105,
          "specularFactor": [
            1.0,
            1.0,
            1.0
          ],
          "specularGlossinessTexture": {
            "index": 7
          }
        }
      },
      "name": "Main_body",
      "normalTexture": {
        "index": 8
      }
    },
    {
      "doubleSided": true,
      "extensions": {
        "KHR_materials_pbrSpecularGlossiness": {
          "diffuseFactor": [
            1.0,
            1.0,
            1.0,
            1.0
          ],
          "diffuseTexture": {
            "index": 9
          },
          "glossinessFactor": 0.7670110067,
          "specularFactor": [
            1.0,
            1.0,
            1.0
          ],
          "specularGlossinessTexture": {
            "index": 10
          }
        }
      },
      "name": "Head",
      "normalTexture": {
        "index": 11
      }
    },
    {
      "doubleSided": true,
      "extensions": {
        "KHR_materials_pbrSpecularGlossiness": {
          "diffuseFactor": [
            1.0,
            1.0,
            1.0,
            1.0
          ],
          "diffuseTexture": {
            "index": 12
          },
          "glossinessFactor": 0.7548897945519649,
          "specularFactor": [
            1.0,
            1.0,
            1.0
          ],
          "specularGlossinessTexture": {
            "index": 13
          }
        }
      },
      "name": "t_Cannon",
      "normalTexture": {
        "index": 14
      }
    }
  ],
  "meshes": [
    {
      "name": "Chains_Chain_0",
      "primitives": [
        {
          "attributes": {
            "NORMAL": 1,
            "POSITION": 0,
            "TANGENT": 2,
            "TEXCOORD_0": 3,
            "TEXCOORD_1": 4,
            "TEXCOORD_2": 5
          },
          "indices": 6,
          "material": 0,
          "mode": 4
        }
      ]
    },
    {
      "name": "Gears_Gears_0",
      "primitives": [
        {
          "attributes": {
            "NORMAL": 8,
            "POSITION": 7,
            "TANGENT": 9,
            "TEXCOORD_0": 10,
            "TEXCOORD_1": 11
          },
          "indices": 12,
          "material": 1,
          "mode": 4
        }
      ]
    },
    {
      "name": "Main_body_Main_body_0",
      "primitives": [
        {
          "attributes": {
            "NORMAL": 14,
            "POSITION": 13,
            "TANGENT": 15,
            "TEXCOORD_0": 16,
            "TEXCOORD_1": 17
          },
          "indices": 18,
          "material": 2,
          "mode": 4
        }
      ]
    },
    {
      "name": "Head_Head_0",
      "primitives": [
        {
          "attributes": {
            "NORMAL": 20,
            "POSITION": 19,
            "TANGENT": 21,
            "TEXCOORD_0": 22,
            "TEXCOORD_1": 23
          },
          "indices": 24,
          "material": 3,
          "mode": 4
        }
      ]
    },
    {
      "name": "Cannon_t_Cannon_0",
      "primitives": [
        {
          "attributes": {
            "NORMAL": 26,
            "POSITION": 25,
            "TANGENT": 27,
            "TEXCOORD_0": 28
          },
          "indices": 29,
          "material": 4,
          "mode": 4
        }
      ]
    }
  ],
  "nodes": [
    {
      "children": [
        1
      ],
      "matrix": [
        1.0,
        0.0,
        0.0,
        0.0,
        0.0,
        2.220446049250313e-16,
        -1.0,
        0.0,
        0.0,
        1.0,
        2.220446049250313e-16,
        0.0,
        0.0,
        0.0,
        0.0,
        1.0
      ],
      "name": "Sketchfab_model"
    },
    {
      "children": [
        2
      ],
      "matrix": [
        1.0,
        0.0,
        0.0,
        0.0,
        0.0,
        0.0,
        1.0,
        0.0,
        0.0,
        -1.0,
        0.0,
        0.0,
        0.0,
        0.0,
        0.0,
        1.0
      ],
      "name": "06896f21dec3402ca676061401d3296a.fbx"
    },
    {
      "children": [
        3,
        5,
        7,
        9,
        11,
        13
      ],
      "name": "RootNode"
    },
    {
      "children": [
        4
      ],
      "matrix": [
        100.0,
        0.0,
        0.0,
        0.0,
        0.0,
        -1.629206793918314e-05,
        -99.99999999999868,
        0.0,
        0.0,
        99.99999999999868,
        -1.629206793918314e-05,
        0.0,
        0.0,
        0.0,
        0.0,
        1.0
      ],
      "name": "Chains"
    },
    {
      "mesh": 0,
      "name": "Chains_Chain_0"
    },
    {
      "children": [
        6
      ],
      "matrix": [
        100.0,
        0.0,
        0.0,
        0.0,
        0.0,
        -1.629206793918314e-05,
        -99.99999999999868,
        0.0,
        0.0,
        99.99999999999868,
        -1.629206793918314e-05,
        0.0,
        0.0,
        0.0,
        0.0,
        1.0
      ],
      "name": "Gears"
    },
    {
      "mesh": 1,
      "name": "Gears_Gears_0"
    },
    {
      "children": [
        8
      ],
      "matrix": [
        100.0,
        0.0,
        0.0,
        0.0,
        0.0,
        -1.629206793918314e-05,
        -99.99999999999868,
        0.0,
        0.0,
        99.99999999999868,
        -1.629206793918314e-05,
        0.0,
        0.0,
        0.0,
        0.0,
        1.0
      ],
      "name": "Main_body"
    },
    {
      "mesh": 2,
      "name": "Main_body_Main_body_0"
    },
    {
      "children": [
        10
      ],
      "matrix": [
        100.0,
        0.0,
        0.0,
        0.0,
        0.0,
        -1.629206793918314e-05,
        -99.99999999999868,
        0.0,
        0.0,
        99.99999999999868,
        -1.629206793918314e-05,
        0.0,
        0.0,
        0.0,
        0.0,
        1.0
      ],
      "name": "Head"
    },
    {
      "mesh": 3,
      "name": "Head_Head_0"
    },
    {
      "children": [
        12
      ],
      "matrix": [
        100.0,
        0.0,
        0.0,
        0.0,
        0.0,
        -1.629206793918314e-05,
        -99.99999999999868,
        0.0,
        0.0,
        99.99999999999868,
        -1.629206793918314e-05,
        0.0,
        0.0,
        0.0,
        0.0,
        1.0
      ],
      "name": "Cannon"
    },
    {
      "mesh": 4,
      "name": "Cannon_t_Cannon_0"
    },
    {
      "children": [
        14
      ],
      "matrix": [
        86.27986627688551,
        -47.045923349296594,
        -18.50583074208945,
        0.0,
        49.65922901509293,
        85.72862924558494,
        13.585400299571235,
        0.0,
        9.47341729130552,
        -20.911316485602384,
        97.32918206676207,
        0.0,
        0.0,
        0.0,
        0.0,
        1.0
      ],
      "name": "Sun"
    },
    {
      "children": [
        15
      ],
      "matrix": [
        1.0,
        0.0,
        0.0,
        0.0,
        0.0,
        2.220446049250313e-16,
        1.0,
        0.0,
        0.0,
        -1.0,
        2.220446049250313e-16,
        0.0,
        0.0,
        0.0,
        0.0,
        1.0
      ],
      "name": "Object_14"
    },
    {
      "name": "Object_15"
    }
  ],
  "samplers": [
    {
      "magFilter": 9729,
      "minFilter": 9987,
      "wrapS": 10497,
      "wrapT": 10497
    }
  ],
  "scene": 0,
  "scenes": [
    {
      "name": "Sketchfab_Scene",
      "nodes": [
        0
      ]
    }
  ],
  "textures": [
    {
      "sampler": 0,
      "source": 0
    },
    {
      "sampler": 0,
      "source": 1
    },
    {
      "sampler": 0,
      "source": 2
    },
    {
      "sampler": 0,
      "source": 3
    },
    {
      "sampler": 0,
      "source": 4
    },
    {
      "sampler": 0,
      "source": 5
    },
    {
      "sampler": 0,
      "source": 6
    },
    {
      "sampler": 0,
      "source": 7
    },
    {
      "sampler": 0,
      "source": 8
    },
    {
      "sampler": 0,
      "source": 9
    },
    {
      "sampler": 0,
      "source": 10
    },
    {
      "sampler": 0,
      "source": 11
    },
    {
      "sampler": 0,
      "source": 12
    },
    {
      "sampler": 0,
      "source": 13
    },
    {
      "sampler": 0,
      "source": 14
    }
  ]
}
